<?xml version="1.0" standalone="no"?>
<!DOCTYPE svg PUBLIC "-//W3C//DTD SVG 20010904//EN"
 "http://www.w3.org/TR/2001/REC-SVG-20010904/DTD/svg10.dtd">
<svg version="1.0" xmlns="http://www.w3.org/2000/svg"
 width="1838.000000pt" height="1838.000000pt" viewBox="0 0 1838.000000 1838.000000"
 preserveAspectRatio="xMidYMid meet">

<g transform="translate(0.000000,1838.000000) scale(0.100000,-0.100000)"
fill="#000000" stroke="none">
<path d="M10790 13906 c-653 -101 -1175 -606 -1355 -1310 -39 -155 -55 -274
-60 -451 -12 -408 141 -818 549 -1474 127 -202 253 -373 507 -681 282 -343
398 -502 509 -697 29 -51 54 -93 56 -93 2 0 23 39 47 88 112 223 236 396 532
742 305 356 415 508 600 825 358 612 474 991 435 1420 -75 812 -610 1464
-1327 1616 -125 26 -371 34 -493 15z m330 -1096 c220 -39 419 -230 476 -460
24 -95 15 -251 -19 -350 -63 -177 -204 -318 -384 -381 -83 -29 -246 -36 -338
-15 -225 53 -403 228 -460 451 -19 76 -19 224 0 300 52 203 207 370 410 440
45 16 196 34 235 28 8 -1 44 -7 80 -13z"/>
<path d="M3305 12188 c-3 -7 -70 -285 -150 -618 -80 -333 -168 -697 -195 -810
-28 -113 -165 -682 -305 -1265 -141 -583 -269 -1116 -286 -1185 -74 -306 -230
-956 -258 -1070 -16 -69 -93 -386 -170 -705 -77 -319 -151 -627 -165 -685 -14
-58 -43 -181 -66 -275 -23 -93 -86 -357 -141 -585 -55 -228 -118 -489 -140
-580 -22 -91 -60 -250 -85 -355 -25 -104 -47 -198 -50 -207 -5 -17 375 -18
7890 -18 6766 0 7896 2 7896 14 0 13 -159 675 -735 3066 -142 586 -310 1286
-375 1555 -65 270 -130 540 -145 600 -94 388 -470 1952 -596 2475 -83 344
-153 633 -155 643 -5 16 -65 17 -1085 17 l-1079 0 -1 -87 c0 -49 -2 -95 -3
-103 -2 -8 -6 -42 -10 -74 -6 -57 -31 -191 -42 -228 -5 -17 43 -18 905 -18
l911 0 5 -22 c3 -13 34 -142 69 -288 35 -146 73 -303 85 -350 19 -82 241
-1002 342 -1420 27 -113 54 -225 60 -250 30 -130 257 -1075 304 -1265 30 -121
176 -726 325 -1345 358 -1487 365 -1513 474 -1965 52 -214 97 -402 101 -417
l7 -28 -7251 0 c-4647 0 -7251 3 -7251 10 0 11 85 367 186 780 68 277 283
1169 451 1870 72 303 267 1111 446 1855 64 264 132 545 151 625 321 1331 472
1959 499 2070 l33 135 2718 3 c2582 2 2717 3 2712 20 -27 88 -56 299 -56 410
l0 82 -2885 0 c-2299 0 -2887 -3 -2890 -12z"/>
</g>
</svg>
