<?xml version="1.0" standalone="no"?>
<!DOCTYPE svg PUBLIC "-//W3C//DTD SVG 20010904//EN"
 "http://www.w3.org/TR/2001/REC-SVG-20010904/DTD/svg10.dtd">
<svg version="1.0" xmlns="http://www.w3.org/2000/svg"
 width="600.000000pt" height="600.000000pt" viewBox="0 0 600.000000 600.000000"
 preserveAspectRatio="xMidYMid meet">

<g transform="translate(0.000000,600.000000) scale(0.100000,-0.100000)"
fill="#000000" stroke="none">
<path d="M4755 5128 c-3 -7 -6 -256 -7 -553 l-3 -540 -27 -57 c-58 -124 -161
-198 -285 -206 -118 -8 -219 41 -286 140 -65 94 -69 116 -77 393 -7 233 -9
255 -33 323 -66 188 -207 332 -385 394 -96 33 -278 33 -370 0 -90 -32 -181
-93 -247 -163 -69 -75 -107 -140 -142 -244 l-28 -80 -3 -677 -3 -678 135 0
135 0 3 673 3 672 29 59 c37 76 101 140 174 174 75 36 182 36 256 2 102 -47
179 -148 205 -268 6 -29 11 -140 11 -246 0 -223 14 -298 77 -419 43 -83 152
-199 226 -241 300 -175 676 -59 832 257 73 148 75 169 75 773 l0 524 -130 0
c-95 0 -132 -3 -135 -12z"/>
<path d="M1103 3040 c-95 -19 -184 -94 -219 -186 -18 -47 -19 -87 -19 -909 l0
-860 24 -47 c30 -61 88 -119 149 -149 l47 -24 1915 0 1915 0 47 24 c61 30 119
88 149 149 l24 47 0 860 c0 824 -1 862 -19 910 -25 65 -94 137 -159 166 l-52
24 -1880 1 c-1034 1 -1899 -2 -1922 -6z m1007 -539 c5 -11 10 -86 10 -170 l0
-151 151 0 c84 0 159 -5 170 -10 18 -10 19 -23 19 -213 0 -145 -3 -206 -12
-215 -8 -8 -60 -12 -170 -12 l-158 0 0 -158 c0 -110 -4 -162 -12 -170 -17 -17
-409 -17 -426 0 -8 8 -12 60 -12 170 l0 158 -158 0 c-110 0 -162 4 -170 12
-17 17 -17 409 0 426 8 8 60 12 170 12 l158 0 0 158 c0 110 4 162 12 170 9 9
70 12 215 12 190 0 203 -1 213 -19z m1456 -535 c61 -28 115 -82 146 -145 32
-65 33 -187 0 -252 -51 -104 -136 -160 -253 -167 -66 -4 -84 -1 -131 20 -120
55 -181 147 -182 271 0 122 55 211 166 267 81 40 176 42 254 6z m940 0 c60
-28 115 -80 146 -139 32 -60 33 -203 1 -262 -81 -152 -256 -209 -404 -132 -72
37 -130 104 -149 173 -18 65 -9 170 20 227 68 135 248 197 386 133z"/>
</g>
</svg>
