<?xml version="1.0" standalone="no"?>
<!DOCTYPE svg PUBLIC "-//W3C//DTD SVG 20010904//EN"
 "http://www.w3.org/TR/2001/REC-SVG-20010904/DTD/svg10.dtd">
<svg version="1.0" xmlns="http://www.w3.org/2000/svg"
 width="320.000000pt" height="320.000000pt" viewBox="0 0 320.000000 320.000000"
 preserveAspectRatio="xMidYMid meet">

<g transform="translate(0.000000,320.000000) scale(0.100000,-0.100000)"
fill="#000000" stroke="none">
<path d="M2538 2448 c-3 -281 -4 -295 -25 -335 -30 -56 -82 -94 -137 -100 -60
-7 -89 1 -131 39 -62 53 -69 77 -75 243 -5 134 -8 156 -32 206 -54 118 -145
180 -276 187 -77 4 -87 2 -147 -27 -70 -35 -120 -86 -157 -160 -23 -45 -23
-52 -26 -423 l-3 -378 71 0 70 0 0 355 c0 383 0 385 54 443 53 59 153 71 218
27 70 -48 82 -81 89 -250 5 -133 8 -156 31 -206 55 -120 151 -189 272 -197
165 -10 303 104 336 277 5 30 10 175 10 322 l0 269 -69 0 -70 0 -3 -292z"/>
<path d="M540 1598 c-18 -13 -43 -36 -54 -51 -21 -28 -21 -37 -21 -507 0 -468
0 -479 21 -506 11 -15 33 -37 48 -48 27 -21 33 -21 1066 -21 1033 0 1039 0
1066 21 15 11 37 33 48 48 21 27 21 38 21 506 0 470 0 479 -21 507 -11 15 -36
38 -54 51 l-33 22 -1027 0 -1027 0 -33 -22z m574 -254 c13 -5 16 -23 16 -95
l0 -89 90 0 91 0 -3 -117 -3 -118 -87 -3 -87 -3 -3 -87 -3 -87 -115 0 -115 0
-3 87 -3 87 -87 3 -87 3 -3 118 -3 117 91 0 90 0 0 89 c0 62 4 91 13 94 18 8
192 8 211 1z m807 -307 c49 -32 83 -105 74 -158 -19 -114 -153 -169 -252 -104
-89 59 -84 208 9 265 46 28 125 27 169 -3z m499 1 c55 -38 75 -73 75 -132 0
-92 -66 -160 -155 -160 -87 1 -149 58 -158 144 -9 96 58 170 154 170 36 0 60
-6 84 -22z"/>
</g>
</svg>
