<?xml version="1.0" standalone="no"?>
<!DOCTYPE svg PUBLIC "-//W3C//DTD SVG 20010904//EN"
 "http://www.w3.org/TR/2001/REC-SVG-20010904/DTD/svg10.dtd">
<svg version="1.0" xmlns="http://www.w3.org/2000/svg"
 width="256.000000pt" height="256.000000pt" viewBox="0 0 256.000000 256.000000"
 preserveAspectRatio="xMidYMid meet">

<g transform="translate(0.000000,256.000000) scale(0.100000,-0.100000)"
fill="#000000" stroke="none">
<path d="M0 1975 l0 -555 238 0 c237 1 237 1 302 28 274 117 509 422 590 764
21 92 44 293 35 308 -4 6 -224 10 -586 10 l-579 0 0 -555z"/>
<path d="M1396 2521 c-8 -13 11 -194 29 -279 33 -157 99 -315 186 -443 97
-145 277 -297 418 -354 58 -24 69 -25 296 -25 l235 0 0 555 0 555 -579 0
c-325 0 -582 -4 -585 -9z"/>
<path d="M0 943 l0 -296 29 40 c97 133 281 164 407 68 46 -36 92 -99 104 -147
11 -38 11 -38 63 -38 l52 0 18 51 c10 28 34 68 53 88 19 21 34 48 34 59 0 41
-59 183 -104 250 -24 37 -74 102 -110 145 l-67 77 -239 0 -240 0 0 -297z"/>
<path d="M2027 1178 c-121 -141 -193 -264 -218 -372 -11 -51 -11 -53 20 -86
32 -36 71 -109 71 -135 0 -12 13 -15 55 -15 l54 0 11 38 c5 22 23 57 39 79
120 165 352 165 472 0 l29 -40 0 296 0 297 -239 0 -239 0 -55 -62z"/>
<path d="M181 692 c-19 -9 -48 -34 -65 -55 -58 -72 -43 -198 29 -256 l26 -20
-39 -20 c-83 -42 -132 -135 -132 -248 l0 -63 265 0 265 0 0 73 c0 54 -6 84
-24 122 -23 50 -78 107 -121 127 l-23 10 33 30 c97 84 63 262 -58 307 -43 16
-118 13 -156 -7z"/>
<path d="M845 686 c-102 -62 -120 -196 -39 -286 l35 -39 -29 -15 c-39 -20 -98
-87 -117 -133 -9 -21 -17 -69 -18 -108 l-2 -70 269 -3 269 -2 -5 78 c-6 104
-42 172 -116 221 l-51 34 30 28 c83 78 75 215 -16 285 -31 23 -49 29 -104 32
-56 2 -72 -1 -106 -22z"/>
<path d="M1535 694 c-45 -23 -66 -45 -86 -89 -34 -74 -18 -160 40 -214 l30
-28 -51 -34 c-77 -51 -112 -120 -113 -218 l0 -76 265 0 265 0 -1 70 c-1 39 -8
86 -17 106 -19 45 -81 115 -119 135 l-29 15 35 39 c111 123 30 310 -135 310
-30 0 -67 -7 -84 -16z"/>
<path d="M2215 696 c-65 -29 -105 -94 -105 -172 0 -57 20 -103 57 -135 l31
-26 -35 -18 c-83 -45 -132 -135 -133 -242 l0 -73 265 0 265 0 0 68 c-1 110
-41 188 -124 241 l-42 26 27 22 c53 44 75 139 48 210 -14 38 -57 83 -96 99
-41 18 -119 17 -158 0z"/>
</g>
</svg>
