<?xml version="1.0" encoding="UTF-8" standalone="no"?>
<!-- Created with Inkscape (http://www.inkscape.org/) -->

<svg
   width="900mm"
   height="900mm"
   viewBox="0 0 900 900"
   version="1.1"
   id="svg5"
   sodipodi:docname="iconumenavi.svg"
   inkscape:version="1.1 (c68e22c387, 2021-05-23)"
   xmlns:inkscape="http://www.inkscape.org/namespaces/inkscape"
   xmlns:sodipodi="http://sodipodi.sourceforge.net/DTD/sodipodi-0.dtd"
   xmlns:xlink="http://www.w3.org/1999/xlink"
   xmlns="http://www.w3.org/2000/svg"
   xmlns:svg="http://www.w3.org/2000/svg">
  <sodipodi:namedview
     id="namedview7"
     pagecolor="#505050"
     bordercolor="#ffffff"
     borderopacity="1"
     inkscape:pageshadow="0"
     inkscape:pageopacity="0"
     inkscape:pagecheckerboard="1"
     inkscape:document-units="px"
     showgrid="false"
     inkscape:zoom="0.11313709"
     inkscape:cx="371.23106"
     inkscape:cy="817.59222"
     inkscape:window-width="1920"
     inkscape:window-height="1001"
     inkscape:window-x="-9"
     inkscape:window-y="-9"
     inkscape:window-maximized="1"
     inkscape:current-layer="layer1" />
  <defs
     id="defs2">
    <linearGradient
       inkscape:collect="always"
       id="linearGradient6488">
      <stop
         style="stop-color:#00c4e5;stop-opacity:1;"
         offset="0"
         id="stop6484" />
      <stop
         style="stop-color:#00c4e5;stop-opacity:0;"
         offset="1"
         id="stop6486" />
    </linearGradient>
    <radialGradient
       inkscape:collect="always"
       xlink:href="#linearGradient6488"
       id="radialGradient6492"
       cx="651.36951"
       cy="99.098534"
       fx="651.36951"
       fy="99.098534"
       r="81.967003"
       gradientTransform="matrix(1,0,0,1.0134467,6.6145835,5.282037)"
       gradientUnits="userSpaceOnUse" />
    <filter
       inkscape:collect="always"
       style="color-interpolation-filters:sRGB"
       id="filter6536"
       x="-1.1869763"
       y="-1.1641497"
       width="3.3739525"
       height="3.3282994">
      <feGaussianBlur
         inkscape:collect="always"
         stdDeviation="11.50378"
         id="feGaussianBlur6538" />
    </filter>
    <radialGradient
       inkscape:collect="always"
       xlink:href="#linearGradient6488"
       id="radialGradient6492-1"
       cx="651.36951"
       cy="99.098534"
       fx="651.36951"
       fy="99.098534"
       r="81.967003"
       gradientTransform="matrix(1,0,0,1.0134467,6.6145835,5.282037)"
       gradientUnits="userSpaceOnUse" />
    <filter
       inkscape:collect="always"
       style="color-interpolation-filters:sRGB"
       id="filter6536-3"
       x="-1.1869763"
       y="-1.1641497"
       width="3.3739525"
       height="3.3282994">
      <feGaussianBlur
         inkscape:collect="always"
         stdDeviation="11.50378"
         id="feGaussianBlur6538-20" />
    </filter>
    <radialGradient
       inkscape:collect="always"
       xlink:href="#linearGradient6488"
       id="radialGradient6492-3"
       cx="651.36951"
       cy="99.098534"
       fx="651.36951"
       fy="99.098534"
       r="81.967003"
       gradientTransform="matrix(1,0,0,1.0134467,6.6145835,5.282037)"
       gradientUnits="userSpaceOnUse" />
    <filter
       inkscape:collect="always"
       style="color-interpolation-filters:sRGB"
       id="filter6536-7"
       x="-1.1869763"
       y="-1.1641497"
       width="3.3739525"
       height="3.3282994">
      <feGaussianBlur
         inkscape:collect="always"
         stdDeviation="11.50378"
         id="feGaussianBlur6538-8" />
    </filter>
    <radialGradient
       inkscape:collect="always"
       xlink:href="#linearGradient6488"
       id="radialGradient6492-15"
       cx="651.36951"
       cy="99.098534"
       fx="651.36951"
       fy="99.098534"
       r="81.967003"
       gradientTransform="matrix(1,0,0,1.0134467,6.6145835,5.282037)"
       gradientUnits="userSpaceOnUse" />
    <filter
       inkscape:collect="always"
       style="color-interpolation-filters:sRGB"
       id="filter6536-0"
       x="-1.1869763"
       y="-1.1641497"
       width="3.3739525"
       height="3.3282994">
      <feGaussianBlur
         inkscape:collect="always"
         stdDeviation="11.50378"
         id="feGaussianBlur6538-6" />
    </filter>
  </defs>
  <g
     style="fill:#013ef8"
     id="g12592"
     transform="matrix(15.698612,0,0,15.698612,266.13202,244.32155)">
    <path
       d="M 0,0 H 24 V 24 H 0 Z"
       fill="none"
       id="path12580" />
    <path
       d="M 18,8 H 17 V 6 C 17,3.24 14.76,1 12,1 9.24,1 7,3.24 7,6 V 8 H 6 C 4.9,8 4,8.9 4,10 v 10 c 0,1.1 0.9,2 2,2 h 12 c 1.1,0 2,-0.9 2,-2 V 10 C 20,8.9 19.1,8 18,8 Z m -6,9 c -1.1,0 -2,-0.9 -2,-2 0,-1.1 0.9,-2 2,-2 1.1,0 2,0.9 2,2 0,1.1 -0.9,2 -2,2 z M 15.1,8 H 8.9 V 6 c 0,-1.71 1.39,-3.1 3.1,-3.1 1.71,0 3.1,1.39 3.1,3.1 z"
       id="path12582" />
  </g>
  <g
     inkscape:label="レイヤー 1"
     inkscape:groupmode="layer"
     id="layer1">
    <path
       sodipodi:type="star"
       style="fill:#003ae5;fill-opacity:0.624481;fill-rule:evenodd;stroke:#0057fa;stroke-width:51;stroke-miterlimit:4;stroke-dasharray:none;stroke-opacity:1"
       id="path47"
       inkscape:flatsided="true"
       sodipodi:sides="6"
       sodipodi:cx="1703.1333"
       sodipodi:cy="1647.8368"
       sodipodi:r1="1492.6788"
       sodipodi:r2="1292.6978"
       sodipodi:arg1="1.0341888"
       sodipodi:arg2="1.5577875"
       inkscape:rounded="0"
       inkscape:randomized="0"
       d="M 2466.2255,2930.7165 973.67294,2950.1339 210.58077,1667.2541 940.04112,364.95705 2432.5937,345.53971 3195.6858,1628.4195 Z"
       transform="matrix(0.26458334,0,0,0.26458334,5.8522118,11.704421)"
       inkscape:transform-center-x="1.3789746e-06"
       inkscape:transform-center-y="-1.3342028e-06" />
    <rect
       style="opacity:1;fill:#0057fa;stroke-width:0.179058"
       id="rect1462"
       width="69.593422"
       height="15.752821"
       x="-2.2073476"
       y="446.17435"
       ry="0" />
    <rect
       style="fill:#0057fa;stroke-width:0.179058"
       id="rect1462-48"
       width="69.593422"
       height="15.752821"
       x="842.6958"
       y="434.70224"
       ry="0" />
    <g
       id="g1932"
       transform="matrix(0.87035748,0,0,0.8754898,173.05447,149.28702)">
      <g
         fill="#ffffff"
         id="g1898"
         transform="translate(3.6,-3)"
         style="opacity:0.51660517">
        <path
           d="M 207.3,608 C 164,603.5 127.7,576.2 110,534.6 c -4.7,-11.2 -5.7,-16.2 -6.6,-33.1 -0.6,-11.2 -0.4,-13 2.6,-26.5 3.8,-17.1 6.6,-26 11.1,-35.5 4.5,-9.5 12.8,-22 19.3,-29.1 5.8,-6.3 5.8,-6.7 -1.1,-7.8 -12.9,-1.9 -32.8,-10.5 -46.1,-20 -8.1,-5.7 -18.5,-15.7 -25,-24.1 -14.5,-18.7 -23.3,-44.7 -23.4,-69.1 -0.1,-17.3 2.3,-29.9 8.3,-45.2 7.3,-18.6 21.4,-37.2 36.9,-48.5 3,-2.3 5.7,-4.4 5.8,-4.9 0.2,-0.4 0.9,-0.8 1.4,-0.8 0.6,0 3.2,-1.3 5.7,-2.9 16,-10.2 44.7,-17.1 65.5,-15.6 10.5,0.7 26.6,4.2 35,7.5 2.7,1.1 5.2,2 5.5,2 0.4,0 0.5,-6.6 0.3,-14.8 -0.3,-11.1 0,-16.8 1.2,-23.2 4.7,-23.6 14,-42.5 29.3,-59 20.7,-22.3 45.9,-34.3 79.3,-37.5 6.7,-0.7 27.1,0.9 32.5,2.5 14.5,4.3 19.3,6.1 28,10.5 17.2,8.8 31.8,21.3 42,35.9 11,15.9 16.2,28 19.6,45.7 1.8,9.6 2.1,13.8 1.7,26.2 -0.3,8.1 -0.2,14.7 0.2,14.7 0.4,0 3.8,-1.1 7.6,-2.4 14.7,-5.1 20,-6 36.9,-6.1 8.8,0 17.9,0.3 20.2,0.7 14.5,2.5 29.7,7.9 39.8,14.3 2.2,1.4 4.7,2.8 5.5,3.1 2.1,1 14,10.5 17.8,14.4 31.2,31.2 42.6,74.8 30.6,116.9 -11,38.4 -44.1,69.9 -83.4,79.4 -4.9,1.2 -9,2.5 -9,3 0,0.4 1.9,2.9 4.3,5.4 15.1,16.8 25.9,39.2 28.9,60.3 1.7,11.6 -1,35.1 -5.7,50 -4.9,15.6 -6.6,19.7 -12.7,30.9 -8.2,15 -26.7,32.3 -44.6,41.9 -28.1,15 -60,18.2 -89.7,9.1 -9.8,-2.9 -27.8,-11.9 -35,-17.4 -8.4,-6.3 -18.7,-16.7 -25.1,-25.2 -3.1,-4 -5.7,-7.3 -5.9,-7.3 -0.3,0 -1.4,1.8 -2.5,4 -3,6 -18.8,21.9 -28.7,28.9 -24,17.2 -52.8,25 -81,22.1 z M 232,594.6 c 12.1,-1.6 21,-4.2 32.3,-9.6 14.2,-6.7 30.1,-19.1 36.5,-28.5 1.5,-2.2 2.9,-4.2 3.2,-4.5 0.3,-0.3 1.7,-2.3 3.1,-4.6 2.5,-3.8 3.9,-6.6 8.8,-17.7 1.1,-2.7 2.6,-4.7 3.2,-4.5 0.6,0.2 3.4,4.7 6.3,10.1 6,11.4 11.9,19.8 19.6,27.7 6.4,6.6 14.2,13 15.9,13 0.6,0 1.1,0.4 1.1,0.9 0,1 1.3,1.8 12,7.2 19.7,10 37.7,12.7 61.3,9.4 17.5,-2.5 32.7,-9.1 50.2,-21.9 4.4,-3.3 16.5,-15.4 16.5,-16.6 0,-0.4 1.3,-2.3 2.9,-4.3 4.4,-5.6 9.6,-16.9 14.5,-31.8 4,-12.1 4.6,-15.1 5.6,-28.3 1.2,-16.2 0.7,-20.6 -3.5,-33.1 -7.4,-22.2 -19.7,-38.6 -40.7,-54.4 -5.4,-4 -9.8,-7.7 -9.8,-8.1 0,-0.5 4.8,-1.1 10.8,-1.4 14,-0.9 31.9,-3.9 37.6,-6.5 2.5,-1.2 5,-2.1 5.5,-2.1 0.6,0 3.7,-1.3 6.9,-2.8 26,-12.6 46.5,-37.8 53.9,-66.2 3.7,-14.1 4.2,-32.1 1.3,-45.9 -6.5,-31.9 -25.6,-57.6 -53.6,-72.3 -17.3,-9 -32.8,-12.4 -53.6,-11.5 -15.9,0.6 -25.9,3.2 -41.6,10.7 -9.9,4.8 -16.3,6.2 -17.7,4 -0.3,-0.5 0.7,-5.5 2.2,-11.2 2.4,-9.2 2.7,-12.1 2.7,-26.8 0.1,-13.9 -0.3,-17.8 -2.1,-24.7 -7.9,-29.4 -26.4,-53 -52.6,-66.8 -16.6,-8.8 -29.9,-11.9 -50.2,-11.8 -15.8,0.1 -27.2,2.5 -40.6,8.3 -28.6,12.5 -51.2,39 -59,69 -4.2,16.5 -3.8,38 1.2,55.1 2.7,9.5 2.6,9.9 -2.2,9.9 -2.8,0 -5.8,-1 -9.7,-3.3 -8.9,-5.1 -17.4,-8.6 -28,-11.4 -8,-2.1 -12,-2.6 -23.2,-2.6 -28.4,-0.1 -50.1,7.9 -70.9,26.3 -33.9,29.8 -43.9,80.1 -24.4,121.7 7.4,15.7 17.5,27.3 36.8,42.1 3.2,2.5 20.5,10.5 26,12.1 12.1,3.4 18.2,4.1 36.1,4.1 12.3,0 18.3,0.3 17.9,1 -0.4,0.6 -5.7,4.5 -11.8,8.7 -22.4,15.4 -37.5,34.5 -44.5,56.3 -4.3,13.2 -8.2,31.3 -8.2,37.9 0,9.6 2.6,26 5,32.2 9.3,23.8 26.7,43.9 48.1,55.2 3.3,1.8 7.4,4 9.2,4.9 1.8,0.9 4.2,1.7 5.4,1.8 1.2,0 2.4,0.4 2.7,0.8 1.1,1.8 16.9,4.7 32.6,6.1 0.9,0 6.7,-0.6 13,-1.3 z"
           id="path1858" />
        <path
           d="m 252.5,561.6 c -10.1,-4.4 -12.6,-18.2 -4.8,-26 2,-2 5.4,-4.1 7.5,-4.6 2.3,-0.7 3.8,-1.7 3.8,-2.6 0,-0.9 2.5,-7.8 5.5,-15.4 3,-7.6 5.5,-14.5 5.5,-15.4 0,-1.3 1.1,-1.6 5,-1.6 3.9,0 5,0.3 5,1.6 0,0.9 -2.4,7.7 -5.4,15.3 -7.1,18 -7.3,19.1 -4.2,22.8 5.2,6.1 5.9,12.3 2.4,19.3 -3.7,7.2 -12.5,10 -20.3,6.6 z"
           id="path1860" />
        <path
           d="m 374.6,561 c -3.4,-1.1 -8.2,-5.4 -10.2,-9.2 -2.7,-5.1 -1.4,-13 2.8,-17.5 1.4,-1.5 1.9,-3 1.5,-5 -0.3,-1.5 -1.2,-6.8 -2.1,-11.8 -0.9,-4.9 -2.4,-11.6 -3.3,-14.8 -1.4,-5.1 -1.5,-6 -0.2,-6.8 1.3,-0.8 7.6,-0.7 8.3,0.2 0.6,0.8 3.6,13.7 4.6,19.9 1.8,11 2.8,13 6,13 3.7,0 10.5,6.6 12.1,11.8 2,7 -1.1,15.6 -6.8,18.5 -3.9,2 -9.3,2.7 -12.7,1.7 z"
           id="path1862" />
        <path
           d="m 179.5,551.5 c -8.5,-3.1 -13.1,-14.9 -9,-23.1 2.6,-5.2 7.2,-7.9 13.9,-8 6.5,-0.1 6.2,0.2 17.6,-13.8 2.5,-3 5,-5.5 5.6,-5.6 1.3,0 6.4,4.2 6.4,5.3 0,0.4 -3,4.2 -6.7,8.5 -3.6,4.2 -7.3,8.5 -8.1,9.4 -1.3,1.5 -1.2,2.2 0.2,5.8 2.2,5.5 2,9.7 -0.7,14.4 -3.8,6.9 -11.8,9.8 -19.2,7.1 z"
           id="path1864" />
        <path
           d="m 449.3,551.3 c -5,-2.8 -7.6,-6.9 -8.1,-12.9 -0.2,-2.9 0,-6.6 0.6,-8.3 1,-2.8 0.5,-3.8 -6.5,-14.3 -4.1,-6.2 -8.2,-12.1 -9.1,-13.1 -1.4,-1.6 -1.3,-1.9 0.8,-4.2 3.1,-3.3 4.2,-3.2 8.2,0.8 4.5,4.5 5.8,6.3 11.9,16.6 3.1,5.2 3.2,5.3 7,4.7 2.9,-0.5 5.1,-0.1 8.4,1.5 12.6,5.9 13.3,23.4 1.2,29 -5.3,2.3 -10.3,2.4 -14.4,0.2 z"
           id="path1866" />
        <path
           d="m 191.5,495.5 c -5.9,-3 -5.7,-0.1 -5.5,-70.8 0.1,-62.5 0.2,-65.2 2,-68.2 3.3,-5.4 11.7,-7.8 17.5,-5.1 3.6,1.7 7,5.8 7.6,9.1 0.4,2 1.3,2 108.7,2.3 l 108.2,0.2 2.1,-4.4 c 2.6,-5.7 4.4,-7.2 9.9,-8.7 3.9,-1 5,-0.9 8.4,0.7 2.2,1.1 4.9,3.2 6,4.7 2.1,2.8 2.1,3.8 2.4,63.8 0.2,42.7 -0.1,62.3 -0.9,65.2 -0.6,2.4 -2.7,5.7 -4.9,7.9 -3.4,3.4 -4.3,3.8 -9,3.8 -5.9,0 -10.3,-2.1 -11.9,-5.7 C 431.4,488.7 431,472 431,439 V 390 H 322.5 214.1 l -0.3,46.8 -0.3,46.8 -2.5,4.8 c -4,7.8 -12.1,10.7 -19.5,7.1 z"
           id="path1868" />
        <path
           d="m 264.3,490.5 c -1.8,-0.8 -4.2,-2.9 -5.3,-4.7 -1.9,-3.1 -2,-5 -2,-37.3 0,-19.3 0.4,-35.5 1,-37.6 2.3,-8.3 11.6,-12.2 19.6,-8.1 2.2,1.1 4.6,3.2 5.4,4.6 l 1.3,2.6 h 39.9 39.8 l 1.7,-3.5 c 1.7,-3.6 6,-6.3 11.6,-7.2 3.9,-0.6 9.1,2 12.1,6.1 2,2.6 2.1,4.1 2.4,37.8 0.3,34.1 0.2,35.1 -1.9,39.4 -1.6,3.4 -3.3,5.1 -7,6.9 l -4.8,2.5 h -55.3 c -45.2,-0.1 -55.9,-0.3 -58.5,-1.5 z M 364,451 v -13 h -39 -39 v 13 13 h 39 39 z"
           id="path1870" />
        <path
           d="m 151.4,482.1 c -7.8,-3.4 -10.7,-16.7 -5.3,-24.5 2.9,-4.3 4.9,-5.5 10.7,-6.6 3.8,-0.7 5.4,-0.5 8.6,1.1 4.7,2.3 4.2,2.2 5.8,0.6 1.9,-1.9 9.1,-6.7 10.1,-6.7 0.4,0 0.7,2.6 0.5,5.7 -0.3,5.3 -0.6,5.9 -3.5,7.8 -2.8,1.7 -3.2,2.6 -3.3,6.1 -0.1,9.9 -6.3,16.6 -15.8,17.1 -3.2,0.1 -6.7,-0.1 -7.8,-0.6 z"
           id="path1872" />
        <path
           d="m 478.5,482.1 c -4.3,-1.9 -8.5,-9.3 -8.5,-15 0,-2.3 -0.7,-3.4 -3,-4.8 -2.7,-1.6 -3,-2.2 -3,-7.1 0,-3 0.3,-5.2 0.8,-5 0.4,0.2 2.8,1.4 5.3,2.6 l 4.6,2.1 3.8,-1.9 c 5.3,-2.7 10.9,-2.5 16,0.5 9.9,5.8 10,19.5 0.2,26.9 -2.9,2.2 -12.7,3.2 -16.2,1.7 z"
           id="path1874" />
        <path
           d="m 516,361.2 c -1.9,-1.1 -4.6,-3.5 -5.9,-5.5 l -2.4,-3.7 h -24.2 c -24,0 -24.2,0 -26.3,-2.3 -1.2,-1.3 -2.2,-3.3 -2.2,-4.5 V 343 h 26 c 19.5,0 26.2,-0.3 26.9,-1.2 6,-7.5 7.4,-8.6 11.6,-9.7 8.3,-2.1 15.2,1.5 19,9.8 5.7,12.8 -9.7,26 -22.5,19.3 z"
           id="path1876" />
        <path
           d="m 112.1,360.1 c -9.9,-5.3 -10.8,-19.7 -1.5,-26.7 6.5,-5 17.5,-3.3 22.3,3.5 1.2,1.6 2.1,3.4 2.1,4 0,0.6 1.7,1.1 3.8,1.2 7.4,0.1 27,0.9 40,1.5 11.3,0.5 13.2,0.8 13.2,2.3 0,0.9 -1.8,2.9 -4,4.4 l -4,2.8 -24.1,-0.7 -24,-0.7 -3.1,3.8 c -5.3,6.4 -13.8,8.3 -20.7,4.6 z"
           id="path1878" />
        <path
           d="m 247.8,330.8 c -6.7,-3.9 -6.8,-4.5 -6.8,-43.2 0,-24.2 0.3,-35.3 1.2,-37.1 1.5,-3.3 6.4,-6.3 11.5,-6.9 5.2,-0.7 11.8,3.3 13.5,8.1 l 1.2,3.3 h 53.7 53.6 l 1.3,-4.4 c 1.3,-4.9 4,-7.9 8.3,-9.5 4.1,-1.6 6.5,-1.4 11.3,1 7.4,3.5 7.5,4.6 7.2,46.6 l -0.3,36.3 -3.1,3.1 c -1.7,1.6 -4.8,3.4 -7,3.9 -2.1,0.5 -34.9,1 -72.9,1 -68.9,0 -69,-0.1 -72.7,-2.2 z M 376,294 V 283 H 322.5 269 v 11 11 h 53.5 53.5 z"
           id="path1880" />
        <path
           d="m 195.5,309.8 c -20.3,-7.2 -43.7,-15.4 -52,-18.3 -14.5,-5.1 -15.1,-5.3 -17,-3.5 -3.4,3 -6.2,4 -11.2,4 -9.1,0 -15.3,-6.3 -15.3,-15.5 0,-8.1 4.5,-13.7 12.5,-15.5 8.1,-1.8 15.7,2.9 18.5,11.6 1.2,3.8 2.1,4.9 4.5,5.7 1.7,0.5 4.4,1.5 6.2,2.3 1.7,0.8 3.5,1.4 3.9,1.4 0.9,0 16.9,5.7 19.9,7.1 1.1,0.5 6.3,2.3 11.5,4 5.2,1.7 10.4,3.4 11.5,3.9 1.1,0.5 4.9,1.9 8.5,3 3.6,1.2 7.4,2.6 8.5,3 1.1,0.5 3.8,1.4 6,2 2.2,0.6 4.9,1.5 6,2 9.1,3.7 12.6,5 13.7,5 0.8,0 2.2,0.6 3.1,1.3 1.5,1 1.6,1.7 0.6,4.7 -0.6,1.9 -1.4,3.8 -1.8,4.2 -0.3,0.3 -17.2,-5.2 -37.6,-12.4 z"
           id="path1882" />
        <path
           d="m 409.2,313.9 0.3,-5 14.5,-4.8 c 8,-2.7 23.7,-7.9 35,-11.6 11.3,-3.7 21,-7.1 21.5,-7.5 0.6,-0.4 5.1,-2 10,-3.4 18.5,-5.5 24.5,-7.8 24.5,-9.2 0,-3.6 3.4,-9.4 6.9,-11.7 5.3,-3.5 9.9,-4.2 14.7,-2.2 9.5,3.9 13.1,14.2 8.1,22.9 -4.7,8.4 -15,10.6 -23.1,4.9 l -4.5,-3.2 -53.6,18 c -29.5,9.8 -53.9,17.9 -54.1,17.9 -0.3,0 -0.4,-2.3 -0.2,-5.1 z"
           id="path1884" />
        <path
           d="m 226,278.3 c -5.2,-4.1 -16.5,-13 -25,-19.9 -8.5,-6.8 -19.1,-15.3 -23.6,-18.8 l -8.1,-6.5 -4.3,1.5 c -13.5,4.7 -25.3,-9 -19.1,-22 3.9,-7.9 14.2,-10.9 22.1,-6.5 4.9,2.8 8.2,8.6 7.9,14.2 -0.2,4.7 0.7,7.7 2.5,7.7 0.6,0 2.7,1.6 4.6,3.5 1.9,1.9 3.8,3.5 4.2,3.5 0.4,0 1.6,0.8 2.6,1.8 2.2,2.2 7.3,6.3 10.1,8.2 1.3,0.8 4.1,3.2 6.4,5.2 2.3,2.1 4.5,3.8 4.9,3.8 0.4,0 1.5,0.8 2.5,1.8 2.7,2.7 12,10.2 12.7,10.2 0.3,0 2.6,1.9 5.1,4.3 4.5,4.2 4.6,4.3 4.3,9.9 l -0.3,5.6 z"
           id="path1886" />
        <path
           d="m 409,274.5 c 0,-5.9 -0.2,-5.7 8,-11.6 3,-2.2 6.2,-4.6 7.1,-5.4 0.9,-0.7 4.8,-3.5 8.5,-6.2 14.7,-10.4 16.4,-11.7 16.4,-12.5 0,-0.4 0.6,-0.8 1.3,-0.8 0.7,0 2.3,-1 3.7,-2.3 1.4,-1.2 4.1,-3.3 6,-4.7 6.3,-4.3 8.3,-6.7 7.6,-9.3 -1,-4 1.4,-10 5.5,-13.9 6.5,-6.2 14.4,-6.1 20.6,0.5 4.2,4.4 5.3,6.9 5.3,11.7 0,7.4 -4.5,13 -12.1,15 -3.7,1 -7,0.6 -12,-1.4 -1,-0.5 -11.7,6.9 -33,22.8 -17.3,13 -31.7,23.6 -32.1,23.6 -0.5,0 -0.8,-2.5 -0.8,-5.5 z"
           id="path1888" />
        <path
           d="m 209.2,232.3 c -6.9,-3.4 -8.8,-12.5 -4.3,-19.9 3.7,-6.1 6,-6.4 56.8,-6.4 H 307 v -13 c 0,-11.2 0.3,-13.7 2,-17.1 4.8,-9.2 15.7,-10.4 23,-2.5 2.4,2.6 2.5,3.4 2.8,17.7 l 0.3,14.9 h 46.6 c 41.4,0 46.9,0.2 50,1.7 4.7,2.2 7.3,6.6 7.3,12.6 0,4 -0.5,5.3 -3.2,8.3 -2.1,2.2 -4.8,3.8 -7.3,4.4 -2.3,0.6 -48.8,1 -110,1 -96.5,0 -106.3,-0.2 -109.3,-1.7 z"
           id="path1890" />
        <path
           d="m 266.5,193.3 c -1.5,-4.9 -4.1,-13.5 -5.9,-19.2 l -3.3,-10.4 -4.2,-1.3 c -6.6,-1.9 -9.6,-5.3 -11.2,-12.4 -1.1,-4.6 0.5,-10.4 3.9,-13.9 9.7,-10.1 27.2,-3.1 27.2,10.9 0,4.2 -3.3,12 -5,12 -1.7,0 -1.1,2.9 4.6,21.4 3,10 5.7,18.9 6,19.9 0.5,1.5 -0.2,1.7 -4.5,1.7 h -5 z"
           id="path1892" />
        <path
           d="m 362,201.3 c 0,-0.5 3,-9.6 6.7,-20.4 l 6.7,-19.5 -2.2,-2.8 c -7.1,-9.1 -3.8,-22 6.7,-25.5 4.9,-1.6 7.8,-1.4 12.7,1.1 7.7,3.8 10.8,14.4 6.3,21.8 -2.8,4.5 -4.4,5.7 -9.9,7.3 l -4.5,1.4 -5.7,16.4 c -7.9,22.5 -6.9,20.9 -12.3,20.9 -2.5,0 -4.5,-0.3 -4.5,-0.7 z"
           id="path1894" />
        <path
           d="m 317,152.3 -0.1,-11.8 -3.9,-2.7 c -9.4,-6.5 -9.8,-19.4 -0.8,-26.1 3.8,-2.9 12.3,-3.4 16.8,-1 10.4,5.4 10.8,20.7 0.8,27.2 l -3.8,2.4 v 11.9 11.8 h -4.5 -4.5 z"
           id="path1896" />
      </g>
    </g>
    <rect
       style="fill:#0057fa;stroke-width:0.229724"
       id="rect1462-4-8"
       width="163.27371"
       height="11.051839"
       x="1018.2504"
       y="77.22509"
       ry="0"
       transform="matrix(0.69737703,0.71670445,-0.6698607,0.74248679,0,0)" />
    <rect
       style="fill:#0057fa;stroke-width:0.229724"
       id="rect1462-4-0-5"
       width="163.27371"
       height="11.051839"
       x="-500.06305"
       y="-554.41034"
       ry="0"
       transform="matrix(-0.68814532,0.72557289,-0.76876673,-0.63952929,0,0)"
       inkscape:transform-center-x="-4.6772167"
       inkscape:transform-center-y="0.58465209" />
    <ellipse
       style="opacity:0;fill:#003ae5;fill-opacity:0.624481;stroke:#0057fa;stroke-width:13.4938;stroke-miterlimit:4;stroke-dasharray:none;stroke-opacity:1"
       id="path4039"
       cx="643.11731"
       cy="89.419189"
       rx="4.677217"
       ry="7.5678954" />
    <ellipse
       style="opacity:1;mix-blend-mode:normal;fill:#a5e4ff;fill-opacity:1;stroke:url(#radialGradient6492);stroke-width:211.667;stroke-miterlimit:4;stroke-dasharray:none;stroke-opacity:1;filter:url(#filter6536)"
       id="path4043"
       cx="657.98407"
       cy="105.71312"
       rx="56.21114"
       ry="57.313324"
       transform="matrix(0.55531616,0,0,0.55531616,282.673,45.845394)" />
    <ellipse
       style="mix-blend-mode:normal;fill:#a5e4ff;fill-opacity:1;stroke:url(#radialGradient6492-1);stroke-width:211.667;stroke-miterlimit:4;stroke-dasharray:none;stroke-opacity:1;filter:url(#filter6536-3)"
       id="path4043-5"
       cx="657.98407"
       cy="105.71312"
       rx="56.21114"
       ry="57.313324"
       transform="matrix(0.55531616,0,0,0.55531616,486.23845,382.81924)" />
    <ellipse
       style="mix-blend-mode:normal;fill:#a5e4ff;fill-opacity:1;stroke:url(#radialGradient6492-3);stroke-width:211.667;stroke-miterlimit:4;stroke-dasharray:none;stroke-opacity:1;filter:url(#filter6536-7)"
       id="path4043-9"
       cx="657.98407"
       cy="105.71312"
       rx="56.21114"
       ry="57.313324"
       transform="matrix(0.55531616,0,0,0.55531616,294.41552,726.77758)" />
    <ellipse
       style="mix-blend-mode:normal;fill:#a5e4ff;fill-opacity:1;stroke:url(#radialGradient6492-15);stroke-width:211.667;stroke-miterlimit:4;stroke-dasharray:none;stroke-opacity:1;filter:url(#filter6536-0)"
       id="path4043-4"
       cx="657.98407"
       cy="105.71312"
       rx="56.21114"
       ry="57.313324"
       transform="matrix(0.55531616,0,0,0.55531616,-297.58969,391.08747)" />
  </g>
</svg>
