<?xml version="1.0" encoding="iso-8859-1"?>
<!-- Generator: Adobe Illustrator 19.0.0, SVG Export Plug-In . SVG Version: 6.00 Build 0)  -->
<svg version="1.1" id="Layer_1" xmlns="http://www.w3.org/2000/svg" xmlns:xlink="http://www.w3.org/1999/xlink" x="0px" y="0px"
	 viewBox="0 0 512 512" style="enable-background:new 0 0 512 512;" xml:space="preserve">
<g>
	<g>
		<g>
			<path d="M127.945,187.733h85.333c4.71,0,8.533-3.823,8.533-8.533v-76.8h162.133c4.719,0,8.533-3.823,8.533-8.533V8.533
				c0-4.71-3.814-8.533-8.533-8.533h-256c-4.71,0-8.533,3.823-8.533,8.533V179.2C119.411,183.91,123.234,187.733,127.945,187.733z
				 M136.478,17.067h68.267v42.667c0,4.71,3.823,8.533,8.533,8.533s8.533-3.823,8.533-8.533V17.067h68.267v42.667
				c0,4.71,3.814,8.533,8.533,8.533c4.719,0,8.533-3.823,8.533-8.533V17.067h68.267v68.267H213.278h-51.2
				c-4.71,0-8.533,3.823-8.533,8.533c0,4.71,3.823,8.533,8.533,8.533h42.667v68.267h-68.267V17.067z"/>
			<path d="M477.811,417.604V162.133c0-4.71-3.814-8.533-8.533-8.533h-85.333c-4.719,0-8.533,3.823-8.533,8.533v76.8H213.278
				c-4.71,0-8.533,3.823-8.533,8.533v76.8h-68.267v-76.8c0-4.71-3.823-8.533-8.533-8.533H42.611c-4.71,0-8.533,3.823-8.533,8.533
				v256c0,4.71,3.823,8.533,8.533,8.533h426.667c4.719,0,8.533-3.823,8.533-8.533V418.68c0.017-0.188,0.111-0.35,0.111-0.538
				C477.922,417.954,477.828,417.792,477.811,417.604z M460.745,409.609h-76.757c-0.017,0-0.026-0.008-0.043-0.008
				s-0.026,0.008-0.043,0.008h-85.248c-0.017,0-0.026-0.008-0.043-0.008c-0.017,0-0.026,0.008-0.043,0.008h-85.248
				c-0.017,0-0.026-0.008-0.043-0.008s-0.026,0.008-0.043,0.008h-85.248c-0.017,0-0.026-0.008-0.043-0.008
				c-0.017,0-0.026,0.008-0.043,0.008H76.855c-4.719,0-8.533,3.823-8.533,8.533s3.814,8.533,8.533,8.533h42.556v42.658
				c0,4.71,3.823,8.533,8.533,8.533s8.533-3.823,8.533-8.533v-42.658h68.267v42.658c0,4.71,3.823,8.533,8.533,8.533
				s8.533-3.823,8.533-8.533v-42.658h68.267v42.658c0,4.71,3.814,8.533,8.533,8.533c4.719,0,8.533-3.823,8.533-8.533v-42.658h68.267
				v42.658c0,4.71,3.814,8.533,8.533,8.533s8.533-3.823,8.533-8.533v-42.658h68.267v68.258h-409.6V256h68.267v68.275H76.796
				c-4.71,0-8.533,3.823-8.533,8.533c0,4.71,3.823,8.533,8.533,8.533h42.615V384c0,4.71,3.823,8.533,8.533,8.533
				s8.533-3.823,8.533-8.533v-42.667h68.267V384c0,4.71,3.823,8.533,8.533,8.533s8.533-3.823,8.533-8.533v-42.658h68.267v42.641
				c0,4.71,3.814,8.533,8.533,8.533c4.719,0,8.533-3.823,8.533-8.533v-42.641h68.267v42.641c0,4.71,3.814,8.533,8.533,8.533
				s8.533-3.823,8.533-8.533v-42.641h68.267V409.609z M460.745,238.933h-34.133c-4.719,0-8.533,3.823-8.533,8.533
				s3.814,8.533,8.533,8.533h34.133v68.275H384.09c-0.051,0-0.094-0.026-0.145-0.026s-0.094,0.026-0.145,0.026h-85.043
				c-0.051,0-0.094-0.026-0.145-0.026s-0.094,0.026-0.145,0.026h-76.655V256h68.267v42.667c0,4.71,3.814,8.533,8.533,8.533
				c4.719,0,8.533-3.823,8.533-8.533V256h68.267v42.667c0,4.71,3.814,8.533,8.533,8.533s8.533-3.823,8.533-8.533v-51.2v-76.8h68.267
				V238.933z"/>
		</g>
	</g>
</g>
<g>
</g>
<g>
</g>
<g>
</g>
<g>
</g>
<g>
</g>
<g>
</g>
<g>
</g>
<g>
</g>
<g>
</g>
<g>
</g>
<g>
</g>
<g>
</g>
<g>
</g>
<g>
</g>
<g>
</g>
</svg>
