<?xml version="1.0" standalone="no"?>
<!DOCTYPE svg PUBLIC "-//W3C//DTD SVG 20010904//EN"
 "http://www.w3.org/TR/2001/REC-SVG-20010904/DTD/svg10.dtd">
<svg version="1.0" xmlns="http://www.w3.org/2000/svg"
 width="240.000000pt" height="240.000000pt" viewBox="0 0 240.000000 240.000000"
 preserveAspectRatio="xMidYMid meet">

<g transform="translate(0.000000,240.000000) scale(0.100000,-0.100000)"
fill="#000000" stroke="none">
<path d="M0 1400 l0 -898 317 -197 c174 -108 320 -197 324 -198 4 -1 131 87
283 196 l276 198 276 -198 c152 -109 279 -197 283 -196 4 1 150 90 324 198
l317 197 0 898 0 899 -321 -200 c-177 -109 -326 -196 -332 -192 -7 3 -130 91
-274 195 -144 103 -267 188 -273 188 -6 0 -129 -85 -273 -188 -144 -104 -267
-192 -274 -195 -6 -4 -155 83 -332 192 l-321 200 0 -899z m1100 -74 l0 -654
-187 -134 c-104 -74 -194 -138 -200 -142 -10 -6 -13 126 -13 646 l0 653 198
142 c108 79 198 143 200 143 1 0 2 -294 2 -654z m468 464 l132 -95 0 -653 c0
-520 -3 -652 -12 -646 -7 4 -97 68 -200 142 l-188 134 0 655 0 654 68 -48 c37
-26 127 -91 200 -143z m-1146 14 l178 -109 0 -667 0 -667 -197 123 -198 123
-3 668 -2 667 22 -14 c13 -8 103 -63 200 -124z m1766 -1200 c-7 -6 -97 -63
-200 -127 l-188 -116 0 667 0 667 198 122 197 122 3 -661 c2 -522 -1 -665 -10
-674z"/>
</g>
</svg>
