<?xml version="1.0" standalone="no"?>
<!DOCTYPE svg PUBLIC "-//W3C//DTD SVG 20010904//EN"
 "http://www.w3.org/TR/2001/REC-SVG-20010904/DTD/svg10.dtd">
<svg version="1.0" xmlns="http://www.w3.org/2000/svg"
 width="256.000000pt" height="256.000000pt" viewBox="0 0 256.000000 256.000000"
 preserveAspectRatio="xMidYMid meet">

<g transform="translate(0.000000,256.000000) scale(0.100000,-0.100000)"
fill="#000000" stroke="none">
<path d="M1920 2544 c-39 -26 -379 -424 -421 -493 -57 -94 -66 -150 -46 -269
10 -53 17 -114 17 -135 0 -55 -38 -119 -134 -230 -47 -54 -86 -101 -86 -104 0
-3 32 -42 72 -87 40 -44 75 -85 78 -89 4 -4 49 40 100 99 168 192 163 189 335
190 72 0 149 6 172 12 77 22 154 93 356 326 186 214 197 229 197 267 0 88
-103 132 -167 72 -16 -16 -98 -108 -182 -205 -163 -190 -178 -201 -222 -157
-12 12 -19 30 -17 44 2 13 71 102 158 201 182 209 190 219 190 260 0 60 -75
115 -135 100 -15 -4 -88 -80 -196 -204 -151 -172 -176 -197 -205 -200 -24 -2
-36 2 -48 20 -9 12 -16 30 -16 39 0 9 35 57 78 105 256 292 272 313 272 349 0
73 -91 128 -150 89z"/>
<path d="M81 2322 c-50 -25 -74 -63 -79 -124 -4 -49 3 -70 68 -228 148 -362
282 -603 392 -706 71 -67 134 -98 260 -129 286 -70 236 -28 753 -625 241 -278
439 -506 440 -507 3 -5 183 152 182 159 -3 9 -1831 2110 -1858 2134 -54 48
-101 56 -158 26z"/>
<path d="M797 798 c-330 -377 -547 -630 -547 -637 0 -8 170 -157 178 -155 2 1
154 174 337 385 l333 383 -70 81 c-39 44 -77 83 -84 88 -9 5 -55 -41 -147
-145z"/>
</g>
</svg>
